<?xml version="1.0" encoding="utf-8"?>
<!-- Generator: Adobe Illustrator 23.0.3, SVG Export Plug-In . SVG Version: 6.00 Build 0)  -->
<svg version="1.1" id="Layer_5" xmlns="http://www.w3.org/2000/svg" xmlns:xlink="http://www.w3.org/1999/xlink" x="0px" y="0px"
	 viewBox="0 0 512 512" style="enable-background:new 0 0 512 512;" xml:space="preserve">
<style type="text/css">
	.st0{fill:#A0E8AA;}
	.st1{fill:#2D2D2D;}
</style>
<g>
	<circle class="st0" cx="464" cy="208.9" r="13.5"/>
	<circle class="st0" cx="336" cy="64.9" r="13.5"/>
	<path class="st1" d="M240,296h16v16h-16V296z"/>
	<path class="st1" d="M240,328c0.1,33.1,5,66.2,14.3,98.2l15.4-4.5c-9-30.6-13.6-62.2-13.7-93.8L240,328z"/>
	<path class="st1" d="M432,296.4V264H208v62.6c0,59.8,14.1,119.6,40.8,173l2.2,4.4h137.9l2.2-4.4c7.3-14.5,13.5-29.6,18.9-44.9
		c4.6,0.8,9.3,1.3,14,1.3c44.1,0,80-35.9,80-80C504,334.6,472.4,300.4,432,296.4z M431.5,345c14,3.4,24.5,16,24.5,31
		c0,17.6-14.4,32-32,32c-0.3,0-0.6-0.1-0.9-0.1C427.6,387.2,430.4,366.1,431.5,345L431.5,345z M379,488H261
		c-24.2-50.1-37-105.8-37-161.4V280h192v46.6C416,382.2,403.2,437.9,379,488z M424,440c-3,0-6-0.3-8.9-0.7
		c1.6-5.1,2.9-10.3,4.3-15.5c1.5,0.1,3.1,0.2,4.6,0.2c26.5,0,48-21.5,48-48c0-23.8-17.4-43.5-40.1-47.3c0-0.7,0.1-1.4,0.1-2.2v-14
		c31.5,4,56,30.9,56,63.4C488,411.3,459.3,440,424,440z"/>
	<path class="st1" d="M192,456h-32V280.3c0-10.4,6.5-19.7,15.8-22.7C228.6,240.3,264,191.5,264,136V8H8v128
		c0,55.5,35.4,104.3,88.2,121.6c9.3,3,15.8,12.4,15.8,22.7V456H80c-22.1,0-40,17.9-40,40v8h192v-8C232,473.9,214.1,456,192,456z
		 M57.4,488c3.3-9.3,12.2-16,22.6-16h48V280.3c0-17.5-10.8-32.7-26.8-38C55,227.3,24,184.5,24,136V24h224v112
		c0,48.5-31,91.3-77.2,106.3c-16,5.2-26.8,20.5-26.8,38V472h48c10.4,0,19.3,6.7,22.6,16H57.4z"/>
	<path class="st1" d="M232,136V72h-16v64c0,20.5-7.7,40-21.8,54.9l11.6,11C222.7,184.1,232,160.7,232,136z"/>
	<path class="st1" d="M216,40h16v16h-16V40z"/>
	<path class="st1" d="M472,168h-16c0,17.6-14.4,32-32,32v16c17.6,0,32,14.4,32,32h16c0-17.6,14.4-32,32-32v-16
		C486.4,200,472,185.6,472,168z M464,221.5c-3.6-5.3-8.2-9.9-13.5-13.5c5.3-3.6,9.9-8.2,13.5-13.5c3.6,5.3,8.2,9.9,13.5,13.5
		C472.2,211.6,467.6,216.2,464,221.5z"/>
	<path class="st1" d="M328,104h16c0-17.6,14.4-32,32-32V56c-17.6,0-32-14.4-32-32h-16c0,17.6-14.4,32-32,32v16
		C313.6,72,328,86.4,328,104z M336,50.5c3.6,5.3,8.2,9.9,13.5,13.5c-5.3,3.6-9.9,8.2-13.5,13.5c-3.6-5.3-8.2-9.9-13.5-13.5
		C327.8,60.4,332.4,55.8,336,50.5z"/>
</g>
</svg>
