<?xml version="1.0" encoding="utf-8"?>
<!-- Generator: Adobe Illustrator 23.0.3, SVG Export Plug-In . SVG Version: 6.00 Build 0)  -->
<svg version="1.1" id="Layer_1" xmlns="http://www.w3.org/2000/svg" xmlns:xlink="http://www.w3.org/1999/xlink" x="0px" y="0px"
	 viewBox="0 0 512 512" style="enable-background:new 0 0 512 512;" xml:space="preserve">
<style type="text/css">
	.st0{fill:#A0E8AA;}
	.st1{fill:#2D2D2D;}
</style>
<g>
	<path class="st0" d="M339.5,266.8c2.7,1.3,4.5,4.1,4.5,7.2v36.2l-4.9,9.9H272v16h67.1l4.9,9.9v12.2l-4.9,9.9H272v16h67.1l4.9,9.9
		v12.2l-4.9,9.9H272v16h67.1l4.9,9.9v30c0,3.7-2.5,6.9-6.1,7.8c-0.6,0.1-1.3,0.2-1.9,0.2h-80c-2.5,0-4.9-1.2-6.4-3.2
		c-1.1-1.4-1.6-3.1-1.6-4.8v-30.1l7.2-14.3c1.1-2.3,1.1-4.9,0-7.2l-7.2-14.3v-12.2l7.2-14.3c1.1-2.3,1.1-4.9,0-7.2l-7.2-14.3v-12.2
		l7.2-14.3c1.1-2.3,1.1-4.9,0-7.2l-7.2-14.3v-36.2c0-3,1.7-5.8,4.5-7.2l23.1-11.6c2.7-1.4,4.4-4.1,4.4-7.1v-11.2
		c10.2,4.3,21.8,4.3,32,0V248c0,3,1.7,5.8,4.4,7.1L339.5,266.8z"/>
	<g id="Outline">
		<path class="st1" d="M436.6,178.3L416,149.4V112c0-4.4-3.6-8-8-8h-48c-4.4,0-8,3.6-8,8v37.4l-20.6,28.9c-2.3,3.1-4.3,6.4-6.2,9.8
			l14,7.8c1.6-2.9,3.4-5.6,5.3-8.3l22.1-31c1-1.4,1.5-3,1.5-4.6v-32h32v32c0,1.7,0.5,3.3,1.5,4.6l22.1,31
			c4.5,6.3,8.1,13.1,10.8,20.4H376v16h62.6c0.9,4.9,1.3,9.8,1.4,14.8v1.2h-64v16h64v16h-64v16h60.9l-1.9,5.9c-4,11.7-4,24.5,0,36.2
			l2.9,8.8c1.4,4.2,2.1,8.6,2.1,13.1h-64v16h64v16h-64v16h64v16h-64v16h64v32c0,8.8-7.2,16-16,16h-17.4c-2.1,0-4.2-0.9-5.7-2.4
			c-9.5-9.1-24.4-9.1-33.9,0l11.3,11.3c3.1-3.1,8.1-3.1,11.2,0c4.5,4.5,10.6,7.1,17,7.1H424c17.7,0,32-14.3,32-32V352
			c0-6.2-1-12.3-3-18.1l-2.9-8.8c-2.9-8.5-2.9-17.7,0-26.2l2.9-8.8c0.9-2.9,1.7-5.9,2.2-8.8c0.5-3,0.7-6.1,0.7-9.2v-33.2
			c0-8.3-1-16.6-2.9-24.7C449.9,201.2,444.3,189.1,436.6,178.3z"/>
		<path class="st1" d="M56,192v242c0,34.2,27.8,62,62,62c13.4,0,26.5-4.3,37.2-12.4c7.6-5.7,18-5.7,25.6,0
			c10.1,7.6,22.3,11.9,34.9,12.4l0.6-16c-9.4-0.3-18.4-3.5-25.9-9.2c-13.3-9.9-31.5-9.9-44.8,0c-7.9,6-17.6,9.2-27.6,9.2
			c-25.4,0-46-20.6-46-46v-42h144v-16H72V216h176v-16H72v-8c-0.1-41.7,26.8-78.6,66.5-91.4c3.3-1.1,5.5-4.1,5.5-7.6V72h48v21
			c0,3.5,2.2,6.5,5.5,7.6c37.1,11.9,63.3,45.1,66.2,84l16-1.2c-3.2-43.2-31.2-80.6-71.7-96V72h16V56h-16V24c0-4.4-3.6-8-8-8h-64
			c-4.4,0-8,3.6-8,8v32h-16v16h16v15.4C84.6,103.9,55.9,145.5,56,192z M144,32h48v24h-48V32z"/>
		<path class="st1" d="M123.6,125.5l8.9,13.3c4.9-3.3,10.3-5.8,15.9-7.6l-4.9-15.2C136.4,118.2,129.7,121.4,123.6,125.5z"/>
		<path class="st1" d="M104.4,184.9c1.6-14,7.7-27,17.4-37.2l-11.5-11.1c-12.2,12.7-19.8,29-21.8,46.5L104.4,184.9z"/>
		<rect x="88" y="232" class="st1" width="16" height="16"/>
		<rect x="88" y="264" class="st1" width="16" height="72"/>
		<rect x="264" y="280" class="st1" width="16" height="24"/>
		<path class="st1" d="M296,192c-17.9,0-32,10.5-32,24v27.1l-18.7,9.4c-8.2,4-13.3,12.4-13.3,21.5v38c0,1.2,0.3,2.5,0.8,3.6L239,328
			l-6.2,12.4c-0.6,1.1-0.8,2.3-0.8,3.6v16c0,1.2,0.3,2.5,0.8,3.6L239,376l-6.2,12.4c-0.6,1.1-0.8,2.3-0.8,3.6v16
			c0,1.2,0.3,2.5,0.8,3.6L239,424l-6.2,12.4c-0.6,1.1-0.8,2.3-0.8,3.6v32c0,13.2,10.8,24,24,24h80c1.8,0,3.7-0.2,5.4-0.6
			c10.9-2.5,18.6-12.2,18.6-23.4v-32c0-1.2-0.3-2.5-0.8-3.6L353,424l6.2-12.4c0.6-1.1,0.8-2.3,0.8-3.6v-16c0-1.2-0.3-2.5-0.8-3.6
			L353,376l6.2-12.4c0.6-1.1,0.8-2.3,0.8-3.6v-16c0-1.2-0.3-2.5-0.8-3.6L353,328l6.2-12.4c0.6-1.1,0.8-2.3,0.8-3.6v-38.1
			c0-9.1-5.1-17.4-13.3-21.5L328,243v-27C328,202.5,313.9,192,296,192z M296,208c9.8,0,16,4.7,16,8s-6.2,8-16,8s-16-4.7-16-8
			S286.2,208,296,208z M339.5,266.8c2.7,1.3,4.5,4.1,4.5,7.2v36.2l-4.9,9.9H272v16h67.1l4.9,9.9v12.2l-4.9,9.9H272v16h67.1l4.9,9.9
			v12.2l-4.9,9.9H272v16h67.1l4.9,9.9v30c0,3.7-2.5,6.9-6.1,7.8c-0.6,0.1-1.3,0.2-1.9,0.2h-80c-2.5,0-4.9-1.2-6.4-3.2
			c-1.1-1.4-1.6-3.1-1.6-4.8v-30.1l7.2-14.3c1.1-2.3,1.1-4.9,0-7.2l-7.2-14.3v-12.2l7.2-14.3c1.1-2.3,1.1-4.9,0-7.2l-7.2-14.3v-12.2
			l7.2-14.3c1.1-2.3,1.1-4.9,0-7.2l-7.2-14.3v-36.2c0-3,1.7-5.8,4.5-7.2l23.1-11.6c2.7-1.4,4.4-4.1,4.4-7.1v-11.2
			c10.2,4.3,21.8,4.3,32,0V248c0,3,1.7,5.8,4.4,7.1L339.5,266.8z"/>
	</g>
	<ellipse class="st0" cx="296" cy="216" rx="16" ry="8"/>
</g>
</svg>
