<?xml version="1.0" encoding="utf-8"?>
<!-- Generator: Adobe Illustrator 23.0.3, SVG Export Plug-In . SVG Version: 6.00 Build 0)  -->
<svg version="1.1" id="e3f28eb1-f0aa-4d99-bf37-0b9524df0b9c"
	 xmlns="http://www.w3.org/2000/svg" xmlns:xlink="http://www.w3.org/1999/xlink" x="0px" y="0px" viewBox="0 0 996.3 510.7"
	 style="enable-background:new 0 0 996.3 510.7;" xml:space="preserve">
<style type="text/css">
	.st0{fill:#58B660;}
	.st1{opacity:0.2;enable-background:new    ;}
	.st2{fill:#3F514E;}
	.st3{fill:#CCCCCC;}
	.st4{fill:#9F616A;}
	.st5{fill:#39423A;}
	.st6{fill:#E6E6E6;}
	.st7{fill:#FFCCCC;}
	.st8{fill:#FFFFFF;}
	.st9{fill:#F2F2F2;}
</style>
<polygon class="st0" points="496.3,126 496.3,126.2 496.2,126.7 488.9,179.3 444,195.7 443.3,195.4 418.2,183.5 405.2,133.6 
	404.3,130.2 404.6,130.1 460.2,109.2 496.3,126 "/>
<polygon class="st0" points="443.3,195.4 418.2,183.5 404.3,130.2 404.6,130.1 440.8,145.4 "/>
<polygon class="st1" points="444,194.8 424.9,158.2 427.3,147.8 415.8,134.2 414.8,135 425.9,148.1 417.6,183.3 418.8,183.6 
	424.4,160.1 442.8,195.4 "/>
<polygon class="st2" points="496.3,126.7 496.2,126.7 440.8,146 405.2,133.6 404.3,130.2 404.6,130.1 460.2,109.2 496.3,126 
	496.3,126.2 "/>
<polygon class="st0" points="441.8,147 430.5,138.3 433.1,128.6 465.3,117 487.3,118.3 496,125.7 496.6,127.6 "/>
<polygon class="st0" points="405,130.2 430.5,129.3 444.3,124.6 465.8,117 469.9,111.2 459.8,109.4 "/>
<rect x="442.3" y="122.1" transform="matrix(0.9436 -0.3311 0.3311 0.9436 -15.3053 155.7219)" class="st3" width="14.1" height="1.3"/>
<polygon class="st4" points="280.7,44.3 274.4,75.5 303.5,97.3 317,56.8 "/>
<circle class="st4" cx="304" cy="44.9" r="28"/>
<path class="st5" d="M243.3,257.4c0.1,9,39.5,109.8,34.1,122.9c-8.6,8.8-27.2,55.7-35.1,68.3c-1,0-6.2,15.6-6.2,15.6
	s12.5,19.7,26,11.4c17-39.9,59.5-62.2,60.3-114.3c2.1,16.4,8.1,122,8.1,122s-1.2,0.5,25,3c4.1-61.3,20.7-165.5-16.5-230.9
	C327.4,250.1,243.3,257.4,243.3,257.4z"/>
<path class="st5" d="M330.3,481.2c-1.2,2.3-9.9,23.9-2,26.1c9.1,2.5,18-1,18-1s16,5,25.8-1.4c4.6-4.6,3.5-8.7,1.4-11.7
	c-2.2-3-5.7-4.9-9.4-5.1c-5-0.4-6.5-1.3-7.1-3.6C356.1,481.2,330.3,481.2,330.3,481.2z"/>
<path class="st5" d="M244.9,462.4c0,0-22.3,7.1-17.6,15.3c3.1,5.1,7.5,9.2,12.8,11.8c0,0,4.7,19.2,17.6,19.2c6.5,0,8.7-3.7,9.3-7.3
	c0.5-3.7-0.6-7.5-3.1-10.3c-3.3-3.8-3.7-5.5-2.5-7.5C263.1,480.6,244.9,462.4,244.9,462.4z"/>
<path class="st6" d="M344,260.4c0,0-4.2,8.3-20.8,5.2c-16.6-3.1-82.1,0-82.1,0s3.6-74.3-4.7-118.9s24.4-70.1,24.4-70.1l10.4-10.4
	c10.4-1,32.3,31.2,32.3,31.2c7.2,1.2,14,31.9,19.7,60.9c0.3,1.7,0.7,3.3,1,4.9c2.6,13.5,6.3,28.6,8.5,42.1c0.2,1,0.3,1.9,0.5,2.9
	C336,225.8,339.5,243.2,344,260.4z"/>
<path class="st5" d="M271.2,27.4c0,0-5.2-11.5,8.4-16.8c0,0,11.5-18.9,34.6-6.3c0,0,15.7,6.3,15.7,23.1s5.2,19.9,5.2,19.9
	s-7.8-8-9.9-14.3s-18.4-7.7-24.7-1.4s-22,5.2-22,5.2l1,23.1c0,0-5.2-13.6-7.3-13.6S268.1,27.4,271.2,27.4z"/>
<path class="st1" d="M332.9,205.4c-24.8-13.5-64.9-43-77.9-59c-17.1-21,1.5-37,1.5-37c21.1-13.3,46.4,32.4,46.4,32.4l20.4,16.6
	c0.3,1.7,0.7,3.3,1,4.9C327,176.8,330.7,191.9,332.9,205.4z"/>
<path class="st4" d="M406.9,189.9c0,0,36.8,15,42.9-1.9s-29.1-16.5-29.1-16.5l-13.8,2L406.9,189.9z"/>
<path class="st6" d="M251.8,102.5c0,0-18.6,16-1.6,37.1s95.5,66,95.5,66l51.1-13.8l14.5,2.6l2.7-27.1l-21.3,2.1l-54-11.5l-34.5-28
	C304.2,129.9,273,89.2,251.8,102.5z"/>
<polygon class="st1" points="319.6,295.4 322.9,371.4 314.6,295.4 "/>
<path class="st7" d="M671.2,240.9l-29.6,6.8c-4.8,1.1-9.5-1.8-10.8-6.5l0,0c-1.3-4.8,1.6-9.7,6.4-11c0.7-0.2,1.4-0.3,2.1-0.3
	l28.6-0.7L671.2,240.9z"/>
<path class="st2" d="M668,245.3l-6.6-19.7l39.4-13.4l-10.4-92l0,0c18.8,3.4,27.8,18.2,26.9,37.3l5.1,62.8L668,245.3z"/>
<path class="st5" d="M695.2,99.9h64.3v-32c0-8.6-3.4-16.9-9.4-23.1c-6-6.1-14.2-9.6-22.7-9.6c-17.6,0-31.9,14.2-32.1,31.8
	c0,0.3,0,0.6,0,0.9L695.2,99.9z"/>
<path class="st5" d="M786.4,475.6l-20.6-2.4l-24.6-166.1l-50.9,166.8l-22.2,0.7l25.3-205.2l-3.7-46.8l63-19.9
	C797.4,233.9,796.4,343.9,786.4,475.6z"/>
<circle class="st7" cx="721.7" cy="69.3" r="24.3"/>
<path class="st7" d="M746,113.1l-41.1,10.8c6.9-13.3,9.1-25.8,5.4-37.1l29-4.7C737.4,92.9,739.8,104,746,113.1z"/>
<path class="st2" d="M759.8,211.8c-23.1,14.7-49.9,31.5-69.7,15.2l-9.4-45.8c-7.5-6.7-4.2-27.3,6-56.7c1.3-3.8,4.3-6.7,8.1-8
	l15.6-5.4c6.9,5.8,18.3,2.4,31.7-5.4l15.5,4l6.7,50.5C754.5,174.8,756.2,194.2,759.8,211.8z"/>
<path class="st7" d="M740.6,231.5l-29.6,6.8c-4.8,1.1-9.5-1.8-10.8-6.5l0,0c-1.3-4.8,1.6-9.7,6.4-11c0.7-0.2,1.4-0.3,2.1-0.3
	l28.6-0.7L740.6,231.5z"/>
<path class="st5" d="M782.8,507.4c-3.5,1.6-6.3-8.2-9.3-5.3c-8.1,8-27.7,6.2-27.7,6.2c-2.7-0.9-4.1-3.7-3.3-6.4
	c0-0.1,0.1-0.2,0.1-0.2l0,0c0.6-1.6,1.9-2.7,3.5-3.2l8.7-2.2l13.6-23.9l14.8-1.9l0.4,0.6c5.8,9.3,7.3,20.7,4.1,31.2
	C786.6,506.3,784.9,506.5,782.8,507.4z"/>
<path class="st5" d="M685.1,507.4c-3.5,1.6-6.3-8.2-9.3-5.3c-8.1,8-27.7,6.2-27.7,6.2c-2.7-0.9-4.1-3.7-3.3-6.4
	c0-0.1,0.1-0.2,0.1-0.2l0,0c0.6-1.6,1.9-2.7,3.5-3.2l8.7-2.2l13.6-23.9l14.8-1.9l0.4,0.6c5.8,9.3,7.3,20.7,4.1,31.2
	C688.8,506.3,687.2,506.5,685.1,507.4z"/>
<path class="st5" d="M750.2,49l-6.1,19.4l-52.8-0.9c0.5-18,15.5-32.3,33.5-31.8C734.8,36,744.2,40.9,750.2,49L750.2,49z"/>
<path class="st2" d="M737.5,235.8l-6.6-19.7l39.4-13.4l-14.9-94l0,0c18.8,3.4,32.2,20.2,31.4,39.3l5.1,62.8L737.5,235.8z"/>
<polygon class="st3" points="643.5,182.7 602.5,191.6 594.2,151.3 609.6,130.6 623.4,127.9 638.8,143.6 "/>
<polygon class="st6" points="624.5,184.5 599.9,184.5 596.5,167.9 592.8,149.7 598.3,141.8 608.9,145.1 620.3,161 623.2,177.1 
	623.4,178.3 "/>
<polygon class="st3" points="665.9,174.8 637.5,178.1 642.6,142 654,131.7 663.9,134.1 670.5,149.3 "/>
<polygon class="st6" points="669.6,153.5 667,168 658.4,217.5 625.4,228.1 624.3,227.5 606.5,217.7 596.5,167.9 596.5,167.9 
	623,178.6 623.2,177.1 623.4,176.1 625.4,163.2 634.4,153.5 664.6,146.2 "/>
<circle class="st6" cx="648.7" cy="144.9" r="7"/>
<rect x="615.3" y="150" transform="matrix(0.9845 -0.1753 0.1753 0.9845 -16.673 111.6238)" class="st8" width="16.3" height="0.4"/>
<polygon class="st9" points="624.3,227.5 606.5,217.7 596.5,167.9 596.5,167.9 592.8,149.7 598.3,141.8 608.9,145.1 620.3,161 
	623.2,177.1 623.4,176.1 623.4,178.3 623.5,184.5 "/>
<polygon class="st3" points="606.7,217.8 606.3,217.7 615,184.8 605,171.5 605.3,171.3 615.5,184.7 "/>
<rect x="618.2" y="197.5" transform="matrix(0.9009 -0.434 0.434 0.9009 -31.4252 289.5294)" class="st3" width="0.4" height="32.2"/>
<path class="st1" d="M667.9,165l-1.7,9.1l-0.1,0l-7.4,42.7l-33,10.6l-0.2,0.1l-0.1-0.3L606.8,217l-0.2-0.1l0.1-0.4l-9.9-49.4l0.1,0
	l-1.1-5.4l0.8-1.2l2.5-3.7l10.6,3.3l11.4,15.8l0.2,0.9l1.2,6.8l0.5,2.7l1,5.7l1-6.2l0.3-2.2l0.9-5.6l9-9.7l4-1l2.8-0.7l3.8-0.9
	c-3.3-2-4.4-6.4-2.4-9.7c2-3.3,6.4-4.4,9.7-2.4c3.3,2,4.4,6.4,2.4,9.7c0,0,0,0,0,0l9.8-2.4l2.4,3.5L667.9,165z"/>
<polygon class="st6" points="625.3,201.8 600.7,201.8 593.6,167.1 599.1,159.2 609.7,162.5 621.1,178.3 "/>
<polygon class="st6" points="659.2,234.9 626.2,245.4 607.3,235.1 597.3,185.2 623.8,195.9 626.2,180.5 635.2,170.8 665.4,163.6 
	670.4,170.8 667.8,185.3 "/>
<circle class="st6" cx="649.5" cy="162.2" r="7"/>
<polygon class="st9" points="625.1,244.5 607.3,234.7 597.3,184.9 597.3,184.9 593.6,166.7 599.1,158.8 609.7,162.1 621.2,178 
	624,194.1 624.2,193.1 624.2,195.3 624.3,201.5 "/>
<polygon class="st3" points="607.5,235.1 607.1,235 615.8,202.1 605.8,188.9 606.1,188.6 616.3,202 "/>
<rect x="619" y="214.9" transform="matrix(0.9009 -0.434 0.434 0.9009 -38.8713 291.5911)" class="st3" width="0.4" height="32.2"/>
<polygon class="st3" points="901.5,465.1 860.5,473.9 852.2,433.6 867.6,412.9 881.4,410.3 896.8,425.9 "/>
<polygon class="st6" points="882.5,466.9 857.9,466.9 854.5,450.3 850.8,432.1 856.3,424.2 866.9,427.5 878.3,443.3 881.2,459.5 
	881.4,460.6 "/>
<polygon class="st3" points="923.9,457.2 895.5,460.5 900.6,424.4 912,414 921.9,416.5 928.5,431.6 "/>
<polygon class="st6" points="927.6,435.8 925,450.4 916.4,499.9 883.4,510.4 882.3,509.8 864.5,500.1 854.5,450.2 854.5,450.3 
	881,460.9 881.2,459.5 881.4,458.4 883.4,445.5 892.4,435.8 922.6,428.6 "/>
<circle class="st6" cx="906.7" cy="427.2" r="7"/>
<rect x="873.3" y="432.3" transform="matrix(0.9845 -0.1753 0.1753 0.9845 -62.1773 161.2287)" class="st8" width="16.3" height="0.4"/>
<polygon class="st9" points="882.3,509.8 864.5,500.1 854.5,450.2 854.5,450.3 850.8,432.1 856.3,424.2 866.9,427.5 878.3,443.3 
	881.2,459.5 881.4,458.4 881.4,460.6 881.5,466.9 "/>
<polygon class="st3" points="864.7,500.1 864.3,500 873,467.1 863,453.9 863.3,453.6 873.5,467 "/>
<rect x="876.2" y="479.9" transform="matrix(0.9009 -0.434 0.434 0.9009 -128.3916 429.4599)" class="st3" width="0.4" height="32.2"/>
<polygon class="st6" points="982.3,506.6 955.3,506.6 951.3,454.6 986.3,454.6 "/>
<rect x="950.8" y="475.6" class="st9" width="36" height="8"/>
<polygon class="st3" points="996.1,458.3 990.3,456.6 990.3,454.5 964.7,447 963.5,448.7 957.7,447 954.1,452.2 996.3,464.6 "/>
<polygon class="st0" points="149.3,441 149.3,441.1 149.2,441.6 141.9,494.2 97,510.7 96.3,510.3 71.2,498.4 58.2,448.6 57.3,445.2 
	57.6,445.1 113.2,424.2 149.3,440.9 "/>
<polygon class="st0" points="96.3,510.3 71.2,498.4 57.3,445.2 57.6,445.1 93.8,460.3 "/>
<polygon class="st1" points="97,509.7 77.9,473.1 80.3,462.7 68.8,449.1 67.8,450 78.9,463.1 70.6,498.3 71.8,498.6 77.4,475 
	95.8,510.3 "/>
<polygon class="st2" points="149.3,441.6 149.2,441.6 93.8,461 58.2,448.6 57.3,445.2 57.6,445.1 113.2,424.2 149.3,440.9 
	149.3,441.1 "/>
<polygon class="st0" points="94.8,461.9 83.5,453.2 86.1,443.5 118.3,431.9 140.3,433.2 149,440.6 149.6,442.6 "/>
<polygon class="st0" points="58,445.2 83.5,444.2 97.3,439.5 118.8,431.9 122.9,426.1 112.8,424.3 "/>
<rect x="95.3" y="437.1" transform="matrix(0.9436 -0.3311 0.3311 0.9436 -139.166 58.5858)" class="st3" width="14.1" height="1.3"/>
<polygon class="st0" points="36,507.8 9,507.8 5,455.8 40,455.8 "/>
<rect x="4.5" y="476.8" class="st6" width="36" height="8"/>
<polygon class="st2" points="42,452.8 36,452.8 35.3,450.8 8.7,450.8 8,452.8 2,452.8 0,458.8 44,458.8 "/>
<rect x="202.2" y="507.2" class="st2" width="606.1" height="2"/>
</svg>
